<svg version="1.1" id="Layer_1" xmlns="http://www.w3.org/2000/svg" xmlns:xlink="http://www.w3.org/1999/xlink" x="0px" y="0px"
	 width="100%" viewBox="0 0 216 218" enable-background="new 0 0 216 218" xml:space="preserve">
<path fill="#000100" opacity="1.000000" stroke="none" 
	d="
M149.000000,219.000000 
	C99.333336,219.000000 50.166672,219.000000 1.000007,219.000000 
	C1.000004,146.333344 1.000004,73.666679 1.000002,1.000016 
	C72.999992,1.000011 144.999985,1.000011 216.999969,1.000005 
	C216.999985,73.666649 216.999985,146.333298 217.000000,218.999969 
	C194.500000,219.000000 172.000000,219.000000 149.000000,219.000000 
M82.202942,111.253677 
	C82.385277,111.442932 82.567604,111.632187 82.326782,112.333015 
	C78.104919,115.823921 73.515221,118.960312 69.737885,122.879646 
	C61.918674,130.992752 56.262527,140.412048 55.143436,151.950104 
	C54.735451,156.156570 55.636528,160.760803 59.794861,161.971893 
	C61.846657,162.569489 65.969711,159.849701 67.574402,157.534882 
	C74.727211,147.216736 81.687309,136.721939 87.978935,125.863312 
	C93.103218,117.019386 95.720306,106.447029 106.940727,102.562630 
	C109.204330,101.778999 111.433907,100.382393 113.167320,98.731087 
	C114.802513,97.173340 115.763206,94.907547 117.020607,92.953217 
	C116.500694,92.512451 115.980782,92.071678 115.460869,91.630905 
	C110.578720,94.811600 105.696564,97.992287 100.188576,101.580704 
	C103.853416,91.454704 107.450455,82.654419 110.178642,73.592567 
	C112.115967,67.157646 113.450752,60.416203 113.995407,53.725357 
	C114.460091,48.016960 109.468674,43.797112 103.680466,44.067444 
	C93.336624,44.550556 84.405075,48.126774 77.490547,56.235168 
	C66.174255,69.505325 66.189651,95.474152 77.811569,109.292152 
	C78.571358,110.195496 80.350975,110.241089 82.202942,111.253677 
M116.913643,174.520355 
	C125.655334,172.344162 134.608200,170.778320 143.087784,167.844528 
	C154.943344,163.742706 164.841507,156.273254 171.755157,145.776398 
	C177.704147,136.744171 177.704605,126.572105 172.117447,117.448051 
	C166.344406,108.020424 156.908051,103.644112 145.919830,103.830040 
	C134.317535,104.026367 123.242844,107.128693 113.037880,112.636696 
	C105.878731,116.500763 99.164780,121.107773 95.182945,128.682007 
	C92.599983,133.595306 93.477180,136.856415 98.842461,138.134415 
	C102.873421,139.094559 107.222778,138.895279 111.428986,138.877548 
	C114.054337,138.866486 116.677071,138.233444 120.038368,137.780060 
	C114.898262,147.891998 110.310776,156.988632 105.605690,166.024017 
	C105.263351,166.681396 103.997139,166.800323 103.284012,167.334518 
	C101.993546,168.301208 100.796318,169.392349 99.560165,170.431519 
	C100.770187,171.633377 101.851624,173.671951 103.214172,173.881348 
	C107.427193,174.528778 111.747314,174.479279 116.913643,174.520355 
z"/>
<path fill="#03D11B" opacity="1.000000" stroke="none" 
	d="
M116.469742,174.610367 
	C111.747314,174.479279 107.427193,174.528778 103.214172,173.881348 
	C101.851624,173.671951 100.770187,171.633377 99.560165,170.431519 
	C100.796318,169.392349 101.993546,168.301208 103.284012,167.334518 
	C103.997139,166.800323 105.263351,166.681396 105.605690,166.024017 
	C110.310776,156.988632 114.898262,147.891998 120.038368,137.780060 
	C116.677071,138.233444 114.054337,138.866486 111.428986,138.877548 
	C107.222778,138.895279 102.873421,139.094559 98.842461,138.134415 
	C93.477180,136.856415 92.599983,133.595306 95.182945,128.682007 
	C99.164780,121.107773 105.878731,116.500763 113.037880,112.636696 
	C123.242844,107.128693 134.317535,104.026367 145.919830,103.830040 
	C156.908051,103.644112 166.344406,108.020424 172.117447,117.448051 
	C177.704605,126.572105 177.704147,136.744171 171.755157,145.776398 
	C164.841507,156.273254 154.943344,163.742706 143.087784,167.844528 
	C134.608200,170.778320 125.655334,172.344162 116.469742,174.610367 
M155.123962,122.417206 
	C157.044159,122.299202 158.964340,122.181198 160.884537,122.063194 
	C159.966675,123.982552 159.542038,126.806396 158.027817,127.632088 
	C154.921021,129.326172 151.177277,129.804474 147.791046,131.043716 
	C140.825577,133.592834 131.258713,131.253525 128.329208,141.534409 
	C127.618530,144.028458 125.904388,146.225021 124.753197,148.607422 
	C122.042145,154.217941 119.392319,159.858017 116.359062,166.240875 
	C129.097305,165.404480 139.572250,161.618515 149.699570,155.724579 
	C158.240219,150.754044 163.997421,144.288544 166.186264,134.721375 
	C169.094986,122.007721 162.206726,110.971306 149.844177,109.155876 
	C132.856369,106.661240 118.442894,112.647408 106.179214,124.002205 
	C103.807426,126.198219 102.995529,130.078964 101.464073,133.182571 
	C104.641113,133.909988 107.803886,135.175446 110.997978,135.260162 
	C119.333641,135.481277 123.356819,132.825836 126.146202,125.411995 
	C127.418007,122.031685 127.891312,118.350945 128.935913,113.919266 
	C130.804062,114.905678 133.734192,115.499153 134.136017,116.846603 
	C135.270660,120.651436 135.367966,124.765602 135.948486,129.345062 
	C141.843628,127.880905 148.852325,127.573135 155.123962,122.417206 
z"/>
<path fill="#03CF1B" opacity="1.000000" stroke="none" 
	d="
M81.656212,110.685669 
	C80.350975,110.241089 78.571358,110.195496 77.811569,109.292152 
	C66.189651,95.474152 66.174255,69.505325 77.490547,56.235168 
	C84.405075,48.126774 93.336624,44.550556 103.680466,44.067444 
	C109.468674,43.797112 114.460091,48.016960 113.995407,53.725357 
	C113.450752,60.416203 112.115967,67.157646 110.178642,73.592567 
	C107.450455,82.654419 103.853416,91.454704 100.188576,101.580704 
	C105.696564,97.992287 110.578720,94.811600 115.460869,91.630905 
	C115.980782,92.071678 116.500694,92.512451 117.020607,92.953217 
	C115.763206,94.907547 114.802513,97.173340 113.167320,98.731087 
	C111.433907,100.382393 109.204330,101.778999 106.940727,102.562630 
	C95.720306,106.447029 93.103218,117.019386 87.978935,125.863312 
	C81.687309,136.721939 74.727211,147.216736 67.574402,157.534882 
	C65.969711,159.849701 61.846657,162.569489 59.794861,161.971893 
	C55.636528,160.760803 54.735451,156.156570 55.143436,151.950104 
	C56.262527,140.412048 61.918674,130.992752 69.737885,122.879646 
	C73.515221,118.960312 78.104919,115.823921 82.878113,111.991379 
	C84.576645,110.291626 86.063644,109.096092 86.806076,107.544319 
	C88.874382,103.221298 90.772461,98.803665 92.488579,94.327843 
	C97.203468,82.030907 102.045738,69.770348 106.221634,57.289307 
	C107.096169,54.675465 106.284279,50.188301 104.455467,48.423302 
	C103.161438,47.174431 98.206047,48.144146 95.982124,49.695797 
	C83.772331,58.214691 75.383659,69.602440 73.725624,84.734238 
	C72.974655,91.587875 73.679619,98.535103 79.495407,103.922455 
	C81.006950,105.322655 80.977737,108.386147 81.656212,110.685669 
M70.833557,129.355423 
	C62.369274,141.452606 59.993668,148.200867 63.457394,153.401672 
	C70.170914,141.153046 76.599655,129.424011 83.028389,117.694962 
	C82.569679,117.348152 82.110970,117.001335 81.652252,116.654526 
	C78.167343,120.682854 74.682442,124.711182 70.833557,129.355423 
z"/>
<path fill="#000501" opacity="1.000000" stroke="none" 
	d="
M154.808899,122.638084 
	C148.852325,127.573135 141.843628,127.880905 135.948486,129.345062 
	C135.367966,124.765602 135.270660,120.651436 134.136017,116.846603 
	C133.734192,115.499153 130.804062,114.905678 128.935913,113.919266 
	C127.891312,118.350945 127.418007,122.031685 126.146202,125.411995 
	C123.356819,132.825836 119.333641,135.481277 110.997978,135.260162 
	C107.803886,135.175446 104.641113,133.909988 101.464073,133.182571 
	C102.995529,130.078964 103.807426,126.198219 106.179214,124.002205 
	C118.442894,112.647408 132.856369,106.661240 149.844177,109.155876 
	C162.206726,110.971306 169.094986,122.007721 166.186264,134.721375 
	C163.997421,144.288544 158.240219,150.754044 149.699570,155.724579 
	C139.572250,161.618515 129.097305,165.404480 116.359062,166.240875 
	C119.392319,159.858017 122.042145,154.217941 124.753197,148.607422 
	C125.904388,146.225021 127.618530,144.028458 128.329208,141.534409 
	C131.258713,131.253525 140.825577,133.592834 147.791046,131.043716 
	C151.177277,129.804474 154.921021,129.326172 158.027817,127.632088 
	C159.542038,126.806396 159.966675,123.982552 160.884537,122.063194 
	C158.964340,122.181198 157.044159,122.299202 154.808899,122.638084 
z"/>
<path fill="#000100" opacity="1.000000" stroke="none" 
	d="
M81.929581,110.969673 
	C80.977737,108.386147 81.006950,105.322655 79.495407,103.922455 
	C73.679619,98.535103 72.974655,91.587875 73.725624,84.734238 
	C75.383659,69.602440 83.772331,58.214691 95.982124,49.695797 
	C98.206047,48.144146 103.161438,47.174431 104.455467,48.423302 
	C106.284279,50.188301 107.096169,54.675465 106.221634,57.289307 
	C102.045738,69.770348 97.203468,82.030907 92.488579,94.327843 
	C90.772461,98.803665 88.874382,103.221298 86.806076,107.544319 
	C86.063644,109.096092 84.576645,110.291626 83.089691,111.735596 
	C82.567604,111.632187 82.385277,111.442932 81.929581,110.969673 
z"/>
<path fill="#000F02" opacity="1.000000" stroke="none" 
	d="
M71.015549,129.047455 
	C74.682442,124.711182 78.167343,120.682854 81.652252,116.654526 
	C82.110970,117.001335 82.569679,117.348152 83.028389,117.694962 
	C76.599655,129.424011 70.170914,141.153046 63.457394,153.401672 
	C59.993668,148.200867 62.369274,141.452606 71.015549,129.047455 
z"/>
</svg>